M48
; DRILL file {KiCad (6.0.1)} date Wed Feb  9 22:26:22 2022
; FORMAT={-:-/ absolute / inch / decimal}
; #@! TF.CreationDate,2022-02-09T22:26:22-05:00
; #@! TF.GenerationSoftware,Kicad,Pcbnew,(6.0.1)
; #@! TF.FileFunction,NonPlated,1,2,NPTH
FMAT,2
INCH
; #@! TA.AperFunction,NonPlated,NPTH,ComponentDrill
T1C0.0120
; #@! TA.AperFunction,NonPlated,NPTH,ComponentDrill
T2C0.0200
; #@! TA.AperFunction,NonPlated,NPTH,ComponentDrill
T3C0.0500
%
G90
G05
T1
G00X4.0044Y-2.5189
M15
G01X3.9718Y-2.5514
M16
G05
G00X4.0044Y-3.5796
M15
G01X3.9718Y-3.6121
M16
G05
G00X4.0044Y-4.6402
M15
G01X3.9718Y-4.6727
M16
G05
G00X3.9697Y-2.5535
M15
G01X4.0461Y-2.6299
M16
G05
G00X3.9697Y-3.6142
M15
G01X4.0461Y-3.6906
M16
G05
G00X3.9697Y-4.6749
M15
G01X4.0461Y-4.7512
M16
G05
G00X3.9563Y-2.4666
M15
G01X4.1331Y-2.6433
M16
G05
G00X3.9563Y-3.5272
M15
G01X4.1331Y-3.704
M16
G05
G00X3.9563Y-4.5879
M15
G01X4.1331Y-4.7647
M16
G05
G00X4.0807Y-2.5953
M15
G01X4.0482Y-2.6278
M16
G05
G00X4.0807Y-3.6559
M15
G01X4.0482Y-3.6884
M16
G05
G00X4.0807Y-4.7166
M15
G01X4.0482Y-4.7491
M16
G05
G00X4.1019Y-2.2728
M15
G01X4.126Y-2.2969
M16
G05
G00X4.1019Y-3.3335
M15
G01X4.126Y-3.3575
M16
G05
G00X4.1019Y-4.3941
M15
G01X4.126Y-4.4182
M16
G05
G00X4.29Y-2.1328
M15
G01X3.9563Y-2.4666
M16
G05
G00X4.29Y-3.1935
M15
G01X3.9563Y-3.5272
M16
G05
G00X4.29Y-4.2541
M15
G01X3.9563Y-4.5879
M16
G05
G00X4.1712Y-2.2035
M15
G01X4.1019Y-2.2728
M16
G05
G00X4.1712Y-3.2642
M15
G01X4.1019Y-3.3335
M16
G05
G00X4.1712Y-4.3248
M15
G01X4.1019Y-4.3941
M16
G05
G00X4.1712Y-2.2035
M15
G01X4.1953Y-2.2276
M16
G05
G00X4.1712Y-3.2642
M15
G01X4.1953Y-3.2882
M16
G05
G00X4.1712Y-4.3248
M15
G01X4.1953Y-4.3489
M16
G05
G00X4.4668Y-2.3096
M15
G01X4.1331Y-2.6433
M16
G05
G00X4.4668Y-3.3702
M15
G01X4.1331Y-3.704
M16
G05
G00X4.4668Y-4.4309
M15
G01X4.1331Y-4.7647
M16
G05
G00X4.29Y-2.1328
M15
G01X4.4668Y-2.3096
M16
G05
G00X4.29Y-3.1935
M15
G01X4.4668Y-3.3702
M16
G05
G00X4.29Y-4.2541
M15
G01X4.4668Y-4.4309
M16
G05
G00X4.6347Y-3.2143
M15
G01X4.6673Y-3.1818
M16
G05
G00X4.6347Y-4.275
M15
G01X4.6673Y-4.2425
M16
G05
G00X4.6347Y-5.3357
M15
G01X4.6673Y-5.3031
M16
G05
G00X4.709Y-3.2928
M15
G01X4.6326Y-3.2165
M16
G05
G00X4.709Y-4.3535
M15
G01X4.6326Y-4.2771
M16
G05
G00X4.709Y-5.4141
M15
G01X4.6326Y-5.3378
M16
G05
G00X4.796Y-3.3063
M15
G01X4.6192Y-3.1295
M16
G05
G00X4.796Y-4.3669
M15
G01X4.6192Y-4.1901
M16
G05
G00X4.796Y-5.4276
M15
G01X4.6192Y-5.2508
M16
G05
G00X4.7111Y-3.2907
M15
G01X4.7436Y-3.2582
M16
G05
G00X4.7111Y-4.3514
M15
G01X4.7436Y-4.3188
M16
G05
G00X4.7111Y-5.412
M15
G01X4.7436Y-5.3795
M16
G05
G00X4.6192Y-3.1295
M15
G01X4.9529Y-2.7957
M16
G05
G00X4.6192Y-4.1901
M15
G01X4.9529Y-3.8564
M16
G05
G00X4.6192Y-5.2508
M15
G01X4.9529Y-4.917
M16
G05
G00X4.796Y-3.3063
M15
G01X5.1297Y-2.9725
M16
G05
G00X4.796Y-4.3669
M15
G01X5.1297Y-4.0332
M16
G05
G00X4.796Y-5.4276
M15
G01X5.1297Y-5.0938
M16
G05
G00X4.9897Y-3.1606
M15
G01X4.9657Y-3.1365
M16
G05
G00X4.9897Y-4.2213
M15
G01X4.9657Y-4.1972
M16
G05
G00X4.9897Y-5.2819
M15
G01X4.9657Y-5.2579
M16
G05
G00X4.9897Y-3.1606
M15
G01X5.059Y-3.0913
M16
G05
G00X4.9897Y-4.2213
M15
G01X5.059Y-4.152
M16
G05
G00X4.9897Y-5.2819
M15
G01X5.059Y-5.2126
M16
G05
G00X5.1297Y-2.9725
M15
G01X4.9529Y-2.7957
M16
G05
G00X5.1297Y-4.0332
M15
G01X4.9529Y-3.8564
M16
G05
G00X5.1297Y-5.0938
M15
G01X4.9529Y-4.917
M16
G05
G00X5.059Y-3.0913
M15
G01X5.035Y-3.0673
M16
G05
G00X5.059Y-4.152
M15
G01X5.035Y-4.1279
M16
G05
G00X5.059Y-5.2126
M15
G01X5.035Y-5.1886
M16
G05
G00X6.0412Y-3.0913
M15
G01X6.0652Y-3.0673
M16
G05
G00X6.0412Y-4.152
M15
G01X6.0652Y-4.1279
M16
G05
G00X6.0412Y-5.2126
M15
G01X6.0652Y-5.1886
M16
G05
G00X5.9705Y-2.9725
M15
G01X6.1472Y-2.7957
M16
G05
G00X5.9705Y-4.0332
M15
G01X6.1472Y-3.8564
M16
G05
G00X5.9705Y-5.0938
M15
G01X6.1472Y-4.917
M16
G05
G00X6.0412Y-3.0913
M15
G01X6.1105Y-3.1606
M16
G05
G00X6.0412Y-4.152
M15
G01X6.1105Y-4.2213
M16
G05
G00X6.0412Y-5.2126
M15
G01X6.1105Y-5.2819
M16
G05
G00X6.1105Y-3.1606
M15
G01X6.1345Y-3.1365
M16
G05
G00X6.1105Y-4.2213
M15
G01X6.1345Y-4.1972
M16
G05
G00X6.1105Y-5.2819
M15
G01X6.1345Y-5.2579
M16
G05
G00X5.9705Y-2.9725
M15
G01X6.3042Y-3.3063
M16
G05
G00X5.9705Y-4.0332
M15
G01X6.3042Y-4.3669
M16
G05
G00X5.9705Y-5.0938
M15
G01X6.3042Y-5.4276
M16
G05
G00X6.1472Y-2.7957
M15
G01X6.481Y-3.1295
M16
G05
G00X6.1472Y-3.8564
M15
G01X6.481Y-4.1901
M16
G05
G00X6.1472Y-4.917
M15
G01X6.481Y-5.2508
M16
G05
G00X6.3565Y-3.2582
M15
G01X6.3891Y-3.2907
M16
G05
G00X6.3565Y-4.3188
M15
G01X6.3891Y-4.3514
M16
G05
G00X6.3565Y-5.3795
M15
G01X6.3891Y-5.412
M16
G05
G00X6.3042Y-3.3063
M15
G01X6.481Y-3.1295
M16
G05
G00X6.3042Y-4.3669
M15
G01X6.481Y-4.1901
M16
G05
G00X6.3042Y-5.4276
M15
G01X6.481Y-5.2508
M16
G05
G00X6.3912Y-3.2928
M15
G01X6.4676Y-3.2165
M16
G05
G00X6.3912Y-4.3535
M15
G01X6.4676Y-4.2771
M16
G05
G00X6.3912Y-5.4141
M15
G01X6.4676Y-5.3378
M16
G05
G00X6.4329Y-3.1818
M15
G01X6.4654Y-3.2143
M16
G05
G00X6.4329Y-4.2425
M15
G01X6.4654Y-4.275
M16
G05
G00X6.4329Y-5.3031
M15
G01X6.4654Y-5.3357
M16
G05
G00X6.8102Y-2.1328
M15
G01X6.6334Y-2.3096
M16
G05
G00X6.8102Y-3.1935
M15
G01X6.6334Y-3.3702
M16
G05
G00X6.8102Y-4.2541
M15
G01X6.6334Y-4.4309
M16
G05
G00X6.9671Y-2.6433
M15
G01X6.6334Y-2.3096
M16
G05
G00X6.9671Y-3.704
M15
G01X6.6334Y-3.3702
M16
G05
G00X6.9671Y-4.7647
M15
G01X6.6334Y-4.4309
M16
G05
G00X6.929Y-2.2035
M15
G01X6.9049Y-2.2276
M16
G05
G00X6.929Y-3.2642
M15
G01X6.9049Y-3.2882
M16
G05
G00X6.929Y-4.3248
M15
G01X6.9049Y-4.3489
M16
G05
G00X6.9982Y-2.2728
M15
G01X6.929Y-2.2035
M16
G05
G00X6.9982Y-3.3335
M15
G01X6.929Y-3.2642
M16
G05
G00X6.9982Y-4.3941
M15
G01X6.929Y-4.3248
M16
G05
G00X7.1439Y-2.4666
M15
G01X6.8102Y-2.1328
M16
G05
G00X7.1439Y-3.5272
M15
G01X6.8102Y-3.1935
M16
G05
G00X7.1439Y-4.5879
M15
G01X6.8102Y-4.2541
M16
G05
G00X6.9982Y-2.2728
M15
G01X6.9742Y-2.2969
M16
G05
G00X6.9982Y-3.3335
M15
G01X6.9742Y-3.3575
M16
G05
G00X6.9982Y-4.3941
M15
G01X6.9742Y-4.4182
M16
G05
G00X7.052Y-2.6278
M15
G01X7.0195Y-2.5953
M16
G05
G00X7.052Y-3.6884
M15
G01X7.0195Y-3.6559
M16
G05
G00X7.052Y-4.7491
M15
G01X7.0195Y-4.7166
M16
G05
G00X7.1439Y-2.4666
M15
G01X6.9671Y-2.6433
M16
G05
G00X7.1439Y-3.5272
M15
G01X6.9671Y-3.704
M16
G05
G00X7.1439Y-4.5879
M15
G01X6.9671Y-4.7647
M16
G05
G00X7.1305Y-2.5535
M15
G01X7.0541Y-2.6299
M16
G05
G00X7.1305Y-3.6142
M15
G01X7.0541Y-3.6906
M16
G05
G00X7.1305Y-4.6749
M15
G01X7.0541Y-4.7512
M16
G05
G00X7.1284Y-2.5514
M15
G01X7.0958Y-2.5189
M16
G05
G00X7.1284Y-3.6121
M15
G01X7.0958Y-3.5796
M16
G05
G00X7.1284Y-4.6727
M15
G01X7.0958Y-4.6402
M16
G05
T2
G00X4.2711Y-3.6313
M15
G01X4.158Y-3.7445
M16
G05
G00X4.2711Y-4.692
M15
G01X4.158Y-4.8051
M16
G05
G00X4.2711Y-2.5707
M15
G01X4.158Y-2.6838
M16
G05
G00X4.2711Y-3.6313
M15
G01X4.2941Y-3.6543
M16
G05
G00X4.2711Y-4.692
M15
G01X4.2941Y-4.715
M16
G05
G00X4.2711Y-2.5707
M15
G01X4.2941Y-2.5937
M16
G05
G00X4.4426Y-3.5058
M15
G01X4.2941Y-3.6543
M16
G05
G00X4.1583Y-3.7448
M15
G01X4.5783Y-4.1649
M16
G05
G00X4.4426Y-4.5665
M15
G01X4.2941Y-4.715
M16
G05
G00X4.1583Y-4.8055
M15
G01X4.5783Y-5.2255
M16
G05
G00X4.4426Y-2.4452
M15
G01X4.2941Y-2.5937
M16
G05
G00X4.1583Y-2.6842
M15
G01X4.5784Y-3.1042
M16
G05
G00X4.4196Y-3.4829
M15
G01X4.4426Y-3.5058
M16
G05
G00X4.4196Y-4.5435
M15
G01X4.4426Y-4.5665
M16
G05
G00X4.4196Y-2.4222
M15
G01X4.4426Y-2.4452
M16
G05
G00X4.5327Y-3.3697
M15
G01X4.4196Y-3.4829
M16
G05
G00X4.5327Y-4.4304
M15
G01X4.4196Y-4.5435
M16
G05
G00X4.5327Y-2.3091
M15
G01X4.4196Y-2.4222
M16
G05
G00X4.6918Y-4.0521
M15
G01X4.5787Y-4.1652
M16
G05
G00X4.6918Y-5.1127
M15
G01X4.5787Y-5.2259
M16
G05
G00X4.6918Y-2.9914
M15
G01X4.5787Y-3.1046
M16
G05
G00X4.6689Y-4.0291
M15
G01X4.6918Y-4.0521
M16
G05
G00X4.6689Y-5.0898
M15
G01X4.6918Y-5.1127
M16
G05
G00X4.6689Y-2.9684
M15
G01X4.6918Y-2.9914
M16
G05
G00X4.5331Y-3.3701
M15
G01X4.9531Y-3.7901
M16
G05
G00X4.8174Y-3.8806
M15
G01X4.6689Y-4.0291
M16
G05
G00X4.5331Y-4.4307
M15
G01X4.9531Y-4.8508
M16
G05
G00X4.8174Y-4.9413
M15
G01X4.6689Y-5.0898
M16
G05
G00X4.5331Y-2.3094
M15
G01X4.9531Y-2.7294
M16
G05
G00X4.8174Y-2.8199
M15
G01X4.6689Y-2.9684
M16
G05
G00X4.8174Y-3.8806
M15
G01X4.8403Y-3.9036
M16
G05
G00X4.8174Y-4.9413
M15
G01X4.8403Y-4.9642
M16
G05
G00X4.8174Y-2.8199
M15
G01X4.8403Y-2.8429
M16
G05
G00X4.9535Y-3.7904
M15
G01X4.8403Y-3.9036
M16
G05
G00X4.9535Y-4.8511
M15
G01X4.8403Y-4.9642
M16
G05
G00X4.9535Y-2.7298
M15
G01X4.8403Y-2.8429
M16
G05
G00X5.1523Y-2.6635
M15
G01X5.2655Y-2.7766
M16
G05
G00X5.2655Y-3.5651
M15
G01X5.1523Y-3.6782
M16
G05
G00X5.2655Y-4.898
M15
G01X5.1523Y-4.7848
M16
G05
G00X5.2655Y-5.6864
M15
G01X5.1523Y-5.7995
M16
G05
G00X5.2655Y-2.7766
M15
G01X5.2885Y-2.7537
M16
G05
G00X5.2655Y-3.5651
M15
G01X5.2885Y-3.588
M16
G05
G00X5.2885Y-4.875
M15
G01X5.2655Y-4.898
M16
G05
G00X5.2655Y-5.6864
M15
G01X5.2885Y-5.7094
M16
G05
G00X5.1527Y-2.6631
M15
G01X5.5727Y-2.2431
M16
G05
G00X5.2885Y-2.7537
M15
G01X5.437Y-2.9021
M16
G05
G00X5.437Y-3.4395
M15
G01X5.2885Y-3.588
M16
G05
G00X5.1527Y-3.6785
M15
G01X5.5727Y-4.0986
M16
G05
G00X5.5727Y-4.3644
M15
G01X5.1527Y-4.7845
M16
G05
G00X5.437Y-5.0235
M15
G01X5.2885Y-4.875
M16
G05
G00X5.437Y-5.5609
M15
G01X5.2885Y-5.7094
M16
G05
G00X5.1527Y-5.7999
M15
G01X5.5727Y-6.2199
M16
G05
G00X5.414Y-2.9251
M15
G01X5.437Y-2.9021
M16
G05
G00X5.414Y-3.4166
M15
G01X5.437Y-3.4395
M16
G05
G00X5.437Y-5.0235
M15
G01X5.414Y-5.0464
M16
G05
G00X5.414Y-5.5379
M15
G01X5.437Y-5.5609
M16
G05
G00X5.414Y-2.9251
M15
G01X5.5271Y-3.0383
M16
G05
G00X5.5271Y-3.3034
M15
G01X5.414Y-3.4166
M16
G05
G00X5.5271Y-5.1596
M15
G01X5.414Y-5.0464
M16
G05
G00X5.5271Y-5.4247
M15
G01X5.414Y-5.5379
M16
G05
G00X5.5731Y-2.2428
M15
G01X5.6862Y-2.3559
M16
G05
G00X5.6862Y-3.9858
M15
G01X5.5731Y-4.0989
M16
G05
G00X5.6862Y-4.4772
M15
G01X5.5731Y-4.3641
M16
G05
G00X5.6862Y-6.1071
M15
G01X5.5731Y-6.2202
M16
G05
G00X5.6632Y-2.3789
M15
G01X5.6862Y-2.3559
M16
G05
G00X5.6632Y-3.9628
M15
G01X5.6862Y-3.9858
M16
G05
G00X5.6862Y-4.4772
M15
G01X5.6632Y-4.5002
M16
G05
G00X5.6632Y-6.0841
M15
G01X5.6862Y-6.1071
M16
G05
G00X5.6632Y-2.3789
M15
G01X5.8117Y-2.5274
M16
G05
G00X5.5275Y-3.0379
M15
G01X5.9475Y-2.6179
M16
G05
G00X5.5275Y-3.3038
M15
G01X5.9475Y-3.7238
M16
G05
G00X5.8117Y-3.8143
M15
G01X5.6632Y-3.9628
M16
G05
G00X5.8117Y-4.6487
M15
G01X5.6632Y-4.5002
M16
G05
G00X5.9475Y-4.7392
M15
G01X5.5275Y-5.1592
M16
G05
G00X5.5275Y-5.4251
M15
G01X5.9475Y-5.8451
M16
G05
G00X5.8117Y-5.9356
M15
G01X5.6632Y-6.0841
M16
G05
G00X5.8117Y-2.5274
M15
G01X5.8347Y-2.5044
M16
G05
G00X5.8117Y-3.8143
M15
G01X5.8347Y-3.8373
M16
G05
G00X5.8347Y-4.6257
M15
G01X5.8117Y-4.6487
M16
G05
G00X5.8117Y-5.9356
M15
G01X5.8347Y-5.9586
M16
G05
G00X5.8347Y-2.5044
M15
G01X5.9478Y-2.6175
M16
G05
G00X5.9478Y-3.7242
M15
G01X5.8347Y-3.8373
M16
G05
G00X5.9478Y-4.7389
M15
G01X5.8347Y-4.6257
M16
G05
G00X5.9478Y-5.8455
M15
G01X5.8347Y-5.9586
M16
G05
G00X6.1467Y-4.8511
M15
G01X6.2599Y-4.9642
M16
G05
G00X6.1467Y-3.7904
M15
G01X6.2599Y-3.9036
M16
G05
G00X6.1467Y-2.7298
M15
G01X6.2599Y-2.8429
M16
G05
G00X6.2599Y-4.9642
M15
G01X6.2828Y-4.9413
M16
G05
G00X6.2599Y-3.9036
M15
G01X6.2828Y-3.8806
M16
G05
G00X6.2599Y-2.8429
M15
G01X6.2828Y-2.8199
M16
G05
G00X6.1471Y-4.8508
M15
G01X6.5671Y-4.4307
M16
G05
G00X6.2828Y-4.9413
M15
G01X6.4313Y-5.0898
M16
G05
G00X6.1471Y-3.7901
M15
G01X6.5671Y-3.3701
M16
G05
G00X6.2828Y-3.8806
M15
G01X6.4313Y-4.0291
M16
G05
G00X6.1471Y-2.7294
M15
G01X6.5671Y-2.3094
M16
G05
G00X6.2828Y-2.8199
M15
G01X6.4313Y-2.9684
M16
G05
G00X6.4083Y-5.1127
M15
G01X6.4313Y-5.0898
M16
G05
G00X6.4083Y-4.0521
M15
G01X6.4313Y-4.0291
M16
G05
G00X6.4083Y-2.9914
M15
G01X6.4313Y-2.9684
M16
G05
G00X6.4083Y-5.1127
M15
G01X6.5215Y-5.2259
M16
G05
G00X6.4083Y-4.0521
M15
G01X6.5215Y-4.1652
M16
G05
G00X6.4083Y-2.9914
M15
G01X6.5215Y-3.1046
M16
G05
G00X6.5674Y-4.4304
M15
G01X6.6806Y-4.5435
M16
G05
G00X6.5674Y-3.3697
M15
G01X6.6806Y-3.4829
M16
G05
G00X6.5674Y-2.3091
M15
G01X6.6806Y-2.4222
M16
G05
G00X6.6576Y-4.5665
M15
G01X6.6806Y-4.5435
M16
G05
G00X6.6576Y-3.5058
M15
G01X6.6806Y-3.4829
M16
G05
G00X6.6576Y-2.4452
M15
G01X6.6806Y-2.4222
M16
G05
G00X6.6576Y-4.5665
M15
G01X6.8061Y-4.715
M16
G05
G00X6.5218Y-5.2255
M15
G01X6.9419Y-4.8055
M16
G05
G00X6.6576Y-3.5058
M15
G01X6.8061Y-3.6543
M16
G05
G00X6.5218Y-4.1649
M15
G01X6.9419Y-3.7448
M16
G05
G00X6.6576Y-2.4452
M15
G01X6.8061Y-2.5937
M16
G05
G00X6.5218Y-3.1042
M15
G01X6.9419Y-2.6842
M16
G05
G00X6.8061Y-4.715
M15
G01X6.8291Y-4.692
M16
G05
G00X6.8061Y-3.6543
M15
G01X6.8291Y-3.6313
M16
G05
G00X6.8061Y-2.5937
M15
G01X6.8291Y-2.5707
M16
G05
G00X6.8291Y-4.692
M15
G01X6.9422Y-4.8051
M16
G05
G00X6.8291Y-3.6313
M15
G01X6.9422Y-3.7445
M16
G05
G00X6.8291Y-2.5707
M15
G01X6.9422Y-2.6838
M16
G05
T3
G00X4.3082Y-3.9089
M15
G01X4.4143Y-4.015
M16
G05
G00X4.3082Y-4.9695
M15
G01X4.4143Y-5.0756
M16
G05
G00X4.3082Y-2.8482
M15
G01X4.4143Y-2.9543
M16
G05
G00X4.6971Y-3.52
M15
G01X4.8032Y-3.626
M16
G05
G00X4.6971Y-4.5806
M15
G01X4.8032Y-4.6867
M16
G05
G00X4.6971Y-2.4593
M15
G01X4.8032Y-2.5654
M16
G05
G00X5.3026Y-2.4991
M15
G01X5.4087Y-2.393
M16
G05
G00X5.3026Y-3.8426
M15
G01X5.4087Y-3.9487
M16
G05
G00X5.4087Y-4.5143
M15
G01X5.3026Y-4.6204
M16
G05
G00X5.3026Y-5.9639
M15
G01X5.4087Y-6.07
M16
G05
G00X5.6915Y-2.888
M15
G01X5.7976Y-2.7819
M16
G05
G00X5.6915Y-3.4537
M15
G01X5.7976Y-3.5598
M16
G05
G00X5.7976Y-4.9033
M15
G01X5.6915Y-5.0093
M16
G05
G00X5.6915Y-5.575
M15
G01X5.7976Y-5.6811
M16
G05
G00X6.297Y-4.6867
M15
G01X6.403Y-4.5806
M16
G05
G00X6.297Y-3.626
M15
G01X6.403Y-3.52
M16
G05
G00X6.297Y-2.5654
M15
G01X6.403Y-2.4593
M16
G05
G00X6.6859Y-5.0756
M15
G01X6.7919Y-4.9695
M16
G05
G00X6.6859Y-4.015
M15
G01X6.792Y-3.9089
M16
G05
G00X6.6859Y-2.9543
M15
G01X6.792Y-2.8482
M16
G05
T0
M30
