%TF.GenerationSoftware,KiCad,Pcbnew,(6.0.1)*%
%TF.CreationDate,2022-02-09T22:26:24-05:00*%
%TF.ProjectId,herringbone_plate,68657272-696e-4676-926f-6e655f706c61,rev?*%
%TF.SameCoordinates,Original*%
%TF.FileFunction,Profile,NP*%
%FSLAX46Y46*%
G04 Gerber Fmt 4.6, Leading zero omitted, Abs format (unit mm)*
G04 Created by KiCad (PCBNEW (6.0.1)) date 2022-02-09 22:26:24*
%MOMM*%
%LPD*%
G01*
G04 APERTURE LIST*
%TA.AperFunction,Profile*%
%ADD10C,0.100000*%
%TD*%
G04 APERTURE END LIST*
D10*
X112023897Y-37288898D02*
G75*
G03*
X115391493Y-37288898I1683798J1683798D01*
G01*
X88450725Y-70964858D02*
G75*
G03*
X88450725Y-67597262I-1683798J1683798D01*
G01*
X202948990Y-54126878D02*
X179375818Y-30553706D01*
X165905434Y-37288898D02*
G75*
G03*
X169273030Y-37288898I1683798J1683798D01*
G01*
X78347936Y-57494474D02*
X88450725Y-67597262D01*
X202948990Y-84435242D02*
G75*
G03*
X202948990Y-81067646I-1683798J1683798D01*
G01*
X202948990Y-111376011D02*
G75*
G03*
X202948990Y-108008415I-1683798J1683798D01*
G01*
X165905434Y-37288898D02*
X152435049Y-23818514D01*
X88450725Y-97905627D02*
G75*
G03*
X88450725Y-94538030I-1683799J1683798D01*
G01*
X176008222Y-30553706D02*
X169273030Y-37288898D01*
X142332261Y-171992740D02*
X202948990Y-111376011D01*
X202948990Y-57494474D02*
G75*
G03*
X202948990Y-54126878I-1683798J1683798D01*
G01*
X179375818Y-30553706D02*
G75*
G03*
X176008222Y-30553706I-1683798J-1683798D01*
G01*
X78347936Y-108008415D02*
G75*
G03*
X78347936Y-111376011I1683798J-1683798D01*
G01*
X101921109Y-30553706D02*
X78347936Y-54126878D01*
X78347936Y-84435242D02*
X88450725Y-94538030D01*
X192846202Y-67597262D02*
G75*
G03*
X192846202Y-70964858I1683798J-1683798D01*
G01*
X88450725Y-97905627D02*
X78347936Y-108008415D01*
X202948990Y-81067646D02*
X192846202Y-70964858D01*
X78347936Y-111376011D02*
X138964665Y-171992740D01*
X112023897Y-37288898D02*
X105288705Y-30553706D01*
X192846202Y-67597262D02*
X202948990Y-57494474D01*
X105288705Y-30553706D02*
G75*
G03*
X101921109Y-30553706I-1683798J-1683798D01*
G01*
X192846202Y-94538030D02*
G75*
G03*
X192846202Y-97905627I1683796J-1683799D01*
G01*
X192846202Y-94538030D02*
X202948990Y-84435242D01*
X78347936Y-81067646D02*
G75*
G03*
X78347936Y-84435242I1683798J-1683798D01*
G01*
X128861877Y-23818514D02*
X152435049Y-23818514D01*
X88450725Y-70964858D02*
X78347936Y-81067646D01*
X78347936Y-54126878D02*
G75*
G03*
X78347936Y-57494474I1683798J-1683798D01*
G01*
X202948990Y-108008415D02*
X192846202Y-97905627D01*
X115391493Y-37288898D02*
X128861877Y-23818514D01*
X138964665Y-171992740D02*
G75*
G03*
X142332261Y-171992740I1683798J1683798D01*
G01*
M02*
