%TF.GenerationSoftware,KiCad,Pcbnew,(6.0.1)*%
%TF.CreationDate,2022-02-09T22:29:10-05:00*%
%TF.ProjectId,herringbone_base_layer,68657272-696e-4676-926f-6e655f626173,rev?*%
%TF.SameCoordinates,Original*%
%TF.FileFunction,Profile,NP*%
%FSLAX46Y46*%
G04 Gerber Fmt 4.6, Leading zero omitted, Abs format (unit mm)*
G04 Created by KiCad (PCBNEW (6.0.1)) date 2022-02-09 22:29:10*
%MOMM*%
%LPD*%
G01*
G04 APERTURE LIST*
%TA.AperFunction,Profile*%
%ADD10C,0.100000*%
%TD*%
G04 APERTURE END LIST*
D10*
X204374065Y-104472203D02*
G75*
G03*
X204374065Y-101104607I-1683798J1683798D01*
G01*
X204374065Y-50590666D02*
G75*
G03*
X204374065Y-47223070I-1683798J1683798D01*
G01*
X180800893Y-23649898D02*
G75*
G03*
X177433297Y-23649898I-1683798J-1683798D01*
G01*
X204374065Y-77531434D02*
G75*
G03*
X204374065Y-74163838I-1683798J1683798D01*
G01*
X89875800Y-91001819D02*
G75*
G03*
X89875800Y-87634222I-1683799J1683798D01*
G01*
X89875800Y-64061050D02*
X79773011Y-74163838D01*
X106713780Y-23649898D02*
G75*
G03*
X103346184Y-23649898I-1683798J-1683798D01*
G01*
X79773011Y-101104607D02*
G75*
G03*
X79773011Y-104472203I1683798J-1683798D01*
G01*
X194271277Y-60693454D02*
X204374065Y-50590666D01*
X89875800Y-64061050D02*
G75*
G03*
X89875800Y-60693454I-1683798J1683798D01*
G01*
X204374065Y-47223070D02*
X180800893Y-23649898D01*
X79773011Y-47223070D02*
G75*
G03*
X79773011Y-50590666I1683798J-1683798D01*
G01*
X113448972Y-30385090D02*
X106713780Y-23649898D01*
X103346184Y-23649898D02*
X79773011Y-47223070D01*
X140389740Y-165088932D02*
G75*
G03*
X143757336Y-165088932I1683798J1683798D01*
G01*
X79773011Y-104472203D02*
X140389740Y-165088932D01*
X79773011Y-77531434D02*
X89875800Y-87634222D01*
X194271277Y-87634222D02*
X204374065Y-77531434D01*
X116816568Y-30385090D02*
X130286952Y-16914706D01*
X167330509Y-30385090D02*
X153860124Y-16914706D01*
X167330509Y-30385090D02*
G75*
G03*
X170698105Y-30385090I1683798J1683798D01*
G01*
X204374065Y-101104607D02*
X194271277Y-91001819D01*
X194271277Y-87634222D02*
G75*
G03*
X194271277Y-91001819I1683796J-1683799D01*
G01*
X89875800Y-91001819D02*
X79773011Y-101104607D01*
X79773011Y-50590666D02*
X89875800Y-60693454D01*
X79773011Y-74163838D02*
G75*
G03*
X79773011Y-77531434I1683798J-1683798D01*
G01*
X113448972Y-30385090D02*
G75*
G03*
X116816568Y-30385090I1683798J1683798D01*
G01*
X204374065Y-74163838D02*
X194271277Y-64061050D01*
X143757336Y-165088932D02*
X204374065Y-104472203D01*
X177433297Y-23649898D02*
X170698105Y-30385090D01*
X194271277Y-60693454D02*
G75*
G03*
X194271277Y-64061050I1683798J-1683798D01*
G01*
X130286952Y-16914706D02*
X153860124Y-16914706D01*
M02*
