%TF.GenerationSoftware,KiCad,Pcbnew,(6.0.1)*%
%TF.CreationDate,2022-02-09T22:22:52-05:00*%
%TF.ProjectId,herringbone_macro_pad,68657272-696e-4676-926f-6e655f6d6163,rev?*%
%TF.SameCoordinates,Original*%
%TF.FileFunction,Legend,Bot*%
%TF.FilePolarity,Positive*%
%FSLAX46Y46*%
G04 Gerber Fmt 4.6, Leading zero omitted, Abs format (unit mm)*
G04 Created by KiCad (PCBNEW (6.0.1)) date 2022-02-09 22:22:52*
%MOMM*%
%LPD*%
G01*
G04 APERTURE LIST*
%ADD10C,0.066040*%
%ADD11C,0.127000*%
%ADD12C,0.254000*%
G04 APERTURE END LIST*
D10*
%TO.C,U1*%
X119218604Y-53610878D02*
X117422553Y-51814827D01*
D11*
X125499395Y-43727208D02*
X139873193Y-58101006D01*
D10*
X121014655Y-48222724D02*
X117422553Y-51814827D01*
X124247547Y-47683909D02*
X122990311Y-48941145D01*
X134934052Y-62142121D02*
X130892937Y-66183237D01*
D11*
X126110052Y-50552203D02*
X120910484Y-45352634D01*
X114547075Y-51716044D02*
X119746643Y-56915612D01*
D10*
X134934052Y-62142121D02*
X133138001Y-60346070D01*
X124247547Y-47683909D02*
X122361694Y-45798055D01*
X116255119Y-51904629D02*
X114997884Y-53161865D01*
X118140973Y-53790483D02*
X116883737Y-55047719D01*
D11*
X139873193Y-58101006D02*
X127288262Y-70685937D01*
D10*
X118140973Y-53790483D02*
X116255119Y-51904629D01*
X121016451Y-56665961D02*
X119128801Y-54778311D01*
X125235376Y-48671737D02*
X123978140Y-49928973D01*
X116883737Y-55047719D02*
X114997884Y-53161865D01*
X122810706Y-50018775D02*
X121014655Y-48222724D01*
X133138001Y-60346070D02*
X129096886Y-64387185D01*
D11*
X112440307Y-55837981D02*
X124551080Y-43727208D01*
D10*
X122810706Y-50018775D02*
X119218604Y-53610878D01*
X119128801Y-54778311D02*
X117871566Y-56035547D01*
X122361694Y-45798055D02*
X121104458Y-47055291D01*
X119759215Y-57923197D02*
X117871566Y-56035547D01*
X127123025Y-50559387D02*
X125235376Y-48671737D01*
D11*
X127288262Y-70685937D02*
X112440307Y-55837981D01*
D10*
X122990311Y-48941145D02*
X121104458Y-47055291D01*
X127123025Y-50559387D02*
X125865790Y-51816623D01*
X121016451Y-56665961D02*
X119759215Y-57923197D01*
D11*
X124551080Y-43727208D02*
X125499395Y-43727208D01*
D10*
X130892937Y-66183237D02*
X129096886Y-64387185D01*
X125865790Y-51816623D02*
X123978140Y-49928973D01*
D11*
X119746643Y-56915612D02*
X126110052Y-50552203D01*
X120906892Y-45356227D02*
X114547075Y-51716044D01*
D12*
X127787045Y-44630622D02*
G75*
G03*
X127787045Y-44630622I-127000J0D01*
G01*
%TD*%
M02*
