M48
; DRILL file {KiCad (6.0.1)} date Wed Feb  9 22:23:15 2022
; FORMAT={-:-/ absolute / inch / decimal}
; #@! TF.CreationDate,2022-02-09T22:23:15-05:00
; #@! TF.GenerationSoftware,Kicad,Pcbnew,(6.0.1)
; #@! TF.FileFunction,NonPlated,1,2,NPTH
FMAT,2
INCH
; #@! TA.AperFunction,NonPlated,NPTH,ComponentDrill
T1C0.0689
; #@! TA.AperFunction,NonPlated,NPTH,ComponentDrill
T2C0.1201
; #@! TA.AperFunction,NonPlated,NPTH,ComponentDrill
T3C0.1575
%
G90
G05
T1
X4.7688Y-3.6563
X5.1688Y-3.6563
X5.5187Y-4.4063
X5.625Y-2.7063
X5.625Y-3.1063
X5.9188Y-4.4063
X6.175Y-3.6563
X6.2687Y-5.1563
X6.375Y-2.05
X6.375Y-2.45
X6.575Y-3.6563
X6.6688Y-5.1563
X7.125Y-2.8
X7.125Y-3.2
X7.125Y-4.2063
X7.125Y-4.6063
X7.675Y-5.1563
X7.875Y-3.55
X7.875Y-3.95
X8.075Y-5.1563
T2
X4.4988Y-3.3807
X5.2488Y-4.1307
X5.4388Y-3.3807
X5.9988Y-4.8807
X6.0994Y-1.78
X6.0994Y-2.72
X6.1887Y-4.1307
X6.8494Y-2.53
X6.8494Y-3.47
X6.9387Y-4.8807
X7.5994Y-3.28
X7.5994Y-4.22
T3
X4.4988Y-3.9807
X4.9688Y-3.6563
X5.2488Y-4.7307
X5.4388Y-3.9807
X5.625Y-2.9063
X5.7188Y-4.4063
X5.9988Y-5.4807
X6.1887Y-4.7307
X6.375Y-3.6563
X6.375Y-2.25
X6.4688Y-5.1563
X6.6994Y-1.78
X6.6994Y-2.72
X6.9387Y-5.4807
X7.125Y-3.0
X7.125Y-4.4063
X7.4494Y-2.53
X7.4494Y-3.47
X7.875Y-3.75
X7.875Y-5.1563
X8.1994Y-3.28
X8.1994Y-4.22
T0
M30
