%TF.GenerationSoftware,KiCad,Pcbnew,(6.0.1)*%
%TF.CreationDate,2022-02-15T23:07:00-05:00*%
%TF.ProjectId,herringbone_macro_pad,68657272-696e-4676-926f-6e655f6d6163,rev?*%
%TF.SameCoordinates,Original*%
%TF.FileFunction,Profile,NP*%
%FSLAX46Y46*%
G04 Gerber Fmt 4.6, Leading zero omitted, Abs format (unit mm)*
G04 Created by KiCad (PCBNEW (6.0.1)) date 2022-02-15 23:07:00*
%MOMM*%
%LPD*%
G01*
G04 APERTURE LIST*
%TA.AperFunction,Profile*%
%ADD10C,0.100000*%
%TD*%
G04 APERTURE END LIST*
D10*
X109537500Y-80962500D02*
X100012500Y-80962500D01*
X109537500Y-80962500D02*
X128587500Y-80962500D01*
X133350000Y-61912500D02*
X147637500Y-61912500D01*
X192881250Y-64293750D02*
G75*
G03*
X195262500Y-66675000I2381250J0D01*
G01*
X133350000Y-61912500D02*
G75*
G03*
X130968750Y-64293750I0J-2381250D01*
G01*
X150018750Y-59531250D02*
X150018750Y-40481250D01*
X135731250Y-126206250D02*
X135731250Y-140493750D01*
X173831250Y-45243750D02*
G75*
G03*
X176212500Y-47625000I2381250J0D01*
G01*
X135731250Y-126206250D02*
G75*
G03*
X133350000Y-123825000I-2381250J0D01*
G01*
X150018750Y-30956250D02*
X150018750Y-40481250D01*
X135731250Y-140493750D02*
G75*
G03*
X138112500Y-142875000I2381250J0D01*
G01*
X100012500Y-80962500D02*
G75*
G03*
X97631250Y-83343750I0J-2381250D01*
G01*
X97631250Y-102393750D02*
G75*
G03*
X100012500Y-104775000I2381250J0D01*
G01*
X192881250Y-50006250D02*
G75*
G03*
X190500000Y-47625000I-2381250J0D01*
G01*
X100012500Y-104775000D02*
X114300000Y-104775000D01*
X116681250Y-107156250D02*
G75*
G03*
X114300000Y-104775000I-2381250J0D01*
G01*
X116681250Y-107156250D02*
X116681250Y-121443750D01*
X209550000Y-66675000D02*
X195262500Y-66675000D01*
X171450000Y-28575000D02*
X152400000Y-28575000D01*
X190500000Y-47625000D02*
X176212500Y-47625000D01*
X192881250Y-64293750D02*
X192881250Y-50006250D01*
X119062500Y-123825000D02*
X133350000Y-123825000D01*
X97631250Y-83343750D02*
X97631250Y-102393750D01*
X116681250Y-121443750D02*
G75*
G03*
X119062500Y-123825000I2381250J0D01*
G01*
X130968750Y-78581250D02*
X130968750Y-64293750D01*
X173831250Y-45243750D02*
X173831250Y-30956250D01*
X211931250Y-69056250D02*
G75*
G03*
X209550000Y-66675000I-2381250J0D01*
G01*
X211931250Y-140493750D02*
X211931250Y-69056250D01*
X138112500Y-142875000D02*
X209550000Y-142875000D01*
X128587500Y-80962500D02*
G75*
G03*
X130968750Y-78581250I0J2381250D01*
G01*
X209550000Y-142875000D02*
G75*
G03*
X211931250Y-140493750I0J2381250D01*
G01*
X173831250Y-30956250D02*
G75*
G03*
X171450000Y-28575000I-2381250J0D01*
G01*
X152400000Y-28575000D02*
G75*
G03*
X150018750Y-30956250I0J-2381250D01*
G01*
X147637500Y-61912500D02*
G75*
G03*
X150018750Y-59531250I0J2381250D01*
G01*
M02*
