%TF.GenerationSoftware,KiCad,Pcbnew,(6.0.1)*%
%TF.CreationDate,2022-02-09T22:22:52-05:00*%
%TF.ProjectId,herringbone_macro_pad,68657272-696e-4676-926f-6e655f6d6163,rev?*%
%TF.SameCoordinates,Original*%
%TF.FileFunction,Soldermask,Top*%
%TF.FilePolarity,Negative*%
%FSLAX46Y46*%
G04 Gerber Fmt 4.6, Leading zero omitted, Abs format (unit mm)*
G04 Created by KiCad (PCBNEW (6.0.1)) date 2022-02-09 22:22:52*
%MOMM*%
%LPD*%
G01*
G04 APERTURE LIST*
%ADD10C,1.750000*%
%ADD11C,4.000000*%
%ADD12C,3.050000*%
%ADD13C,2.200000*%
G04 APERTURE END LIST*
D10*
%TO.C,SW9*%
X200025000Y-90170056D03*
D11*
X208265000Y-83312056D03*
D12*
X193025000Y-107188056D03*
D11*
X208265000Y-107188056D03*
D10*
X200025000Y-100330056D03*
D12*
X193025000Y-83312056D03*
D11*
X200025000Y-95250056D03*
D13*
X197485000Y-99060056D03*
X194945000Y-92710056D03*
%TD*%
D10*
%TO.C,SW8*%
X180975000Y-106838806D03*
D11*
X180975000Y-111918806D03*
D10*
X180975000Y-116998806D03*
D13*
X178435000Y-115728806D03*
X175895000Y-109378806D03*
%TD*%
D10*
%TO.C,SW3*%
X161925058Y-62230056D03*
D11*
X161925058Y-57150056D03*
X170165058Y-45212056D03*
D12*
X154925058Y-69088056D03*
D11*
X170165058Y-69088056D03*
D10*
X161925058Y-52070056D03*
D12*
X154925058Y-45212056D03*
D13*
X159385058Y-60960056D03*
X156845058Y-54610056D03*
%TD*%
D10*
%TO.C,SW10*%
X194945000Y-130968806D03*
D11*
X200025000Y-130968806D03*
D10*
X205105000Y-130968806D03*
D13*
X196215000Y-128428806D03*
X202565000Y-125888806D03*
%TD*%
D12*
%TO.C,SW6*%
X173975000Y-88138000D03*
D10*
X180975000Y-81280000D03*
D11*
X180975000Y-76200000D03*
D12*
X173975000Y-64262000D03*
D10*
X180975000Y-71120000D03*
D11*
X189215000Y-64262000D03*
X189215000Y-88138000D03*
D13*
X178435000Y-80010000D03*
X175895000Y-73660000D03*
%TD*%
D12*
%TO.C,SW1*%
X138144306Y-85868922D03*
X114268306Y-85868922D03*
D10*
X131286306Y-92868922D03*
D11*
X138144306Y-101108922D03*
X126206306Y-92868922D03*
X114268306Y-101108922D03*
D10*
X121126306Y-92868922D03*
D13*
X122396306Y-90328922D03*
X128746306Y-87788922D03*
%TD*%
D10*
%TO.C,SW7*%
X159226250Y-130968864D03*
D12*
X176244250Y-123968864D03*
X152368250Y-123968864D03*
D11*
X152368250Y-139208864D03*
D10*
X169386250Y-130968864D03*
D11*
X176244250Y-139208864D03*
X164306250Y-130968864D03*
D13*
X160496250Y-128428864D03*
X166846250Y-125888864D03*
%TD*%
D10*
%TO.C,SW2*%
X142875000Y-68738806D03*
X142875000Y-78898806D03*
D11*
X142875000Y-73818806D03*
D13*
X140335000Y-77628806D03*
X137795000Y-71278806D03*
%TD*%
D10*
%TO.C,SW5*%
X167005000Y-92868806D03*
D11*
X161925000Y-92868806D03*
D10*
X156845000Y-92868806D03*
D13*
X158115000Y-90328806D03*
X164465000Y-87788806D03*
%TD*%
D11*
%TO.C,SW4*%
X133318250Y-120158864D03*
D10*
X150336250Y-111918864D03*
D11*
X157194250Y-120158864D03*
D10*
X140176250Y-111918864D03*
D12*
X133318250Y-104918864D03*
X157194250Y-104918864D03*
D11*
X145256250Y-111918864D03*
D13*
X141446250Y-109378864D03*
X147796250Y-106838864D03*
%TD*%
M02*
