%TF.GenerationSoftware,KiCad,Pcbnew,(6.0.1)*%
%TF.CreationDate,2022-02-16T22:37:27-05:00*%
%TF.ProjectId,herringbone_macro_pad,68657272-696e-4676-926f-6e655f6d6163,rev?*%
%TF.SameCoordinates,Original*%
%TF.FileFunction,Paste,Bot*%
%TF.FilePolarity,Positive*%
%FSLAX46Y46*%
G04 Gerber Fmt 4.6, Leading zero omitted, Abs format (unit mm)*
G04 Created by KiCad (PCBNEW (6.0.1)) date 2022-02-16 22:37:27*
%MOMM*%
%LPD*%
G01*
G04 APERTURE LIST*
G04 Aperture macros list*
%AMRoundRect*
0 Rectangle with rounded corners*
0 $1 Rounding radius*
0 $2 $3 $4 $5 $6 $7 $8 $9 X,Y pos of 4 corners*
0 Add a 4 corners polygon primitive as box body*
4,1,4,$2,$3,$4,$5,$6,$7,$8,$9,$2,$3,0*
0 Add four circle primitives for the rounded corners*
1,1,$1+$1,$2,$3*
1,1,$1+$1,$4,$5*
1,1,$1+$1,$6,$7*
1,1,$1+$1,$8,$9*
0 Add four rect primitives between the rounded corners*
20,1,$1+$1,$2,$3,$4,$5,0*
20,1,$1+$1,$4,$5,$6,$7,0*
20,1,$1+$1,$6,$7,$8,$9,0*
20,1,$1+$1,$8,$9,$2,$3,0*%
G04 Aperture macros list end*
%ADD10R,1.200000X0.900000*%
%ADD11R,1.700000X1.000000*%
%ADD12R,0.800000X0.750000*%
%ADD13R,0.750000X0.800000*%
%ADD14R,2.000000X1.500000*%
%ADD15R,2.000000X3.800000*%
%ADD16RoundRect,0.150000X-0.625000X0.150000X-0.625000X-0.150000X0.625000X-0.150000X0.625000X0.150000X0*%
%ADD17RoundRect,0.250000X-0.650000X0.350000X-0.650000X-0.350000X0.650000X-0.350000X0.650000X0.350000X0*%
%ADD18RoundRect,0.050000X-0.300000X-0.725000X0.300000X-0.725000X0.300000X0.725000X-0.300000X0.725000X0*%
%ADD19RoundRect,0.050000X-0.150000X-0.725000X0.150000X-0.725000X0.150000X0.725000X-0.150000X0.725000X0*%
%ADD20RoundRect,0.075000X0.075000X-0.662500X0.075000X0.662500X-0.075000X0.662500X-0.075000X-0.662500X0*%
%ADD21RoundRect,0.075000X0.662500X-0.075000X0.662500X0.075000X-0.662500X0.075000X-0.662500X-0.075000X0*%
%ADD22RoundRect,0.150000X-0.150000X0.512500X-0.150000X-0.512500X0.150000X-0.512500X0.150000X0.512500X0*%
%ADD23R,0.500000X0.900000*%
%ADD24R,0.900000X0.500000*%
%ADD25R,1.900000X2.500000*%
G04 APERTURE END LIST*
D10*
%TO.C,D1*%
X175800000Y-55350000D03*
X175800000Y-58650000D03*
%TD*%
D11*
%TO.C,SW11*%
X155550000Y-85250000D03*
X149250000Y-85250000D03*
X155550000Y-81450000D03*
X149250000Y-81450000D03*
%TD*%
D12*
%TO.C,C5*%
X159550000Y-69550000D03*
X158050000Y-69550000D03*
%TD*%
D13*
%TO.C,C6*%
X163750000Y-82800000D03*
X163750000Y-84300000D03*
%TD*%
D14*
%TO.C,U1*%
X179200000Y-58000000D03*
D15*
X185500000Y-55700000D03*
D14*
X179200000Y-55700000D03*
X179200000Y-53400000D03*
%TD*%
D13*
%TO.C,C7*%
X159530000Y-68150000D03*
X159530000Y-66650000D03*
%TD*%
D16*
%TO.C,J1*%
X167850000Y-54650000D03*
X167850000Y-55650000D03*
X167850000Y-56650000D03*
X167850000Y-57650000D03*
D17*
X171725000Y-58950000D03*
X171725000Y-53350000D03*
%TD*%
D18*
%TO.C,USB1*%
X158700000Y-36270000D03*
X159475000Y-36270000D03*
D19*
X160175000Y-36270000D03*
X160675000Y-36270000D03*
X161175000Y-36270000D03*
X161675000Y-36270000D03*
X162175000Y-36270000D03*
X162675000Y-36270000D03*
X163175000Y-36270000D03*
X163675000Y-36270000D03*
D18*
X164375000Y-36270000D03*
X165150000Y-36270000D03*
%TD*%
D20*
%TO.C,U3*%
X166740000Y-79432500D03*
X166240000Y-79432500D03*
X165740000Y-79432500D03*
X165240000Y-79432500D03*
X164740000Y-79432500D03*
X164240000Y-79432500D03*
X163740000Y-79432500D03*
X163240000Y-79432500D03*
X162740000Y-79432500D03*
X162240000Y-79432500D03*
X161740000Y-79432500D03*
X161240000Y-79432500D03*
D21*
X159827500Y-78020000D03*
X159827500Y-77520000D03*
X159827500Y-77020000D03*
X159827500Y-76520000D03*
X159827500Y-76020000D03*
X159827500Y-75520000D03*
X159827500Y-75020000D03*
X159827500Y-74520000D03*
X159827500Y-74020000D03*
X159827500Y-73520000D03*
X159827500Y-73020000D03*
X159827500Y-72520000D03*
D20*
X161240000Y-71107500D03*
X161740000Y-71107500D03*
X162240000Y-71107500D03*
X162740000Y-71107500D03*
X163240000Y-71107500D03*
X163740000Y-71107500D03*
X164240000Y-71107500D03*
X164740000Y-71107500D03*
X165240000Y-71107500D03*
X165740000Y-71107500D03*
X166240000Y-71107500D03*
X166740000Y-71107500D03*
D21*
X168152500Y-72520000D03*
X168152500Y-73020000D03*
X168152500Y-73520000D03*
X168152500Y-74020000D03*
X168152500Y-74520000D03*
X168152500Y-75020000D03*
X168152500Y-75520000D03*
X168152500Y-76020000D03*
X168152500Y-76520000D03*
X168152500Y-77020000D03*
X168152500Y-77520000D03*
X168152500Y-78020000D03*
%TD*%
D12*
%TO.C,C8*%
X159540000Y-70860000D03*
X158040000Y-70860000D03*
%TD*%
D13*
%TO.C,C9*%
X160860000Y-68150000D03*
X160860000Y-66650000D03*
%TD*%
%TO.C,C10*%
X163550000Y-68150000D03*
X163550000Y-66650000D03*
%TD*%
D12*
%TO.C,C11*%
X158000000Y-72200000D03*
X156500000Y-72200000D03*
%TD*%
D22*
%TO.C,U2*%
X160970000Y-39472500D03*
X161920000Y-39472500D03*
X162870000Y-39472500D03*
X162870000Y-41747500D03*
X161920000Y-41747500D03*
X160970000Y-41747500D03*
%TD*%
D23*
%TO.C,R3*%
X160600000Y-82800000D03*
X162100000Y-82800000D03*
%TD*%
D13*
%TO.C,C12*%
X162200000Y-68150000D03*
X162200000Y-66650000D03*
%TD*%
D12*
%TO.C,C1*%
X179150000Y-51250000D03*
X180650000Y-51250000D03*
%TD*%
D24*
%TO.C,R1*%
X164390000Y-40210000D03*
X164390000Y-38710000D03*
%TD*%
D13*
%TO.C,C3*%
X166950000Y-87100000D03*
X166950000Y-88600000D03*
%TD*%
%TO.C,C2*%
X179180000Y-60390000D03*
X179180000Y-61890000D03*
%TD*%
D24*
%TO.C,R2*%
X159440000Y-40210000D03*
X159440000Y-38710000D03*
%TD*%
D13*
%TO.C,C4*%
X171250000Y-88600000D03*
X171250000Y-87100000D03*
%TD*%
D25*
%TO.C,Y1*%
X166940625Y-83950000D03*
X171340625Y-83950000D03*
%TD*%
M02*
