%TF.GenerationSoftware,KiCad,Pcbnew,(6.0.1)*%
%TF.CreationDate,2022-02-16T22:37:27-05:00*%
%TF.ProjectId,herringbone_macro_pad,68657272-696e-4676-926f-6e655f6d6163,rev?*%
%TF.SameCoordinates,Original*%
%TF.FileFunction,Legend,Top*%
%TF.FilePolarity,Positive*%
%FSLAX46Y46*%
G04 Gerber Fmt 4.6, Leading zero omitted, Abs format (unit mm)*
G04 Created by KiCad (PCBNEW (6.0.1)) date 2022-02-16 22:37:27*
%MOMM*%
%LPD*%
G01*
G04 APERTURE LIST*
%ADD10C,0.120000*%
G04 APERTURE END LIST*
D10*
%TO.C,SW8*%
X207025000Y-88250056D02*
X207025000Y-102250056D01*
X193025000Y-88250056D02*
X207025000Y-88250056D01*
X193025000Y-102250056D02*
X193025000Y-88250056D01*
X193025000Y-102250056D02*
X207025000Y-102250056D01*
%TO.C,SW7*%
X173975000Y-118918806D02*
X173975000Y-104918806D01*
X173975000Y-104918806D02*
X187975000Y-104918806D01*
X187975000Y-104918806D02*
X187975000Y-118918806D01*
X173975000Y-118918806D02*
X187975000Y-118918806D01*
%TO.C,SW1*%
X154925058Y-64150056D02*
X154925058Y-50150056D01*
X154925058Y-64150056D02*
X168925058Y-64150056D01*
X168925058Y-50150056D02*
X168925058Y-64150056D01*
X154925058Y-50150056D02*
X168925058Y-50150056D01*
%TO.C,SW10*%
X193025000Y-123968806D02*
X207025000Y-123968806D01*
X193025000Y-123968806D02*
X193025000Y-137968806D01*
X207025000Y-123968806D02*
X207025000Y-137968806D01*
X207025000Y-137968806D02*
X193025000Y-137968806D01*
%TO.C,SW3*%
X173975000Y-83200000D02*
X173975000Y-69200000D01*
X187975000Y-69200000D02*
X187975000Y-83200000D01*
X173975000Y-83200000D02*
X187975000Y-83200000D01*
X173975000Y-69200000D02*
X187975000Y-69200000D01*
%TO.C,SW4*%
X119206306Y-85868922D02*
X119206306Y-99868922D01*
X133206306Y-99868922D02*
X119206306Y-99868922D01*
X119206306Y-85868922D02*
X133206306Y-85868922D01*
X133206306Y-85868922D02*
X133206306Y-99868922D01*
%TO.C,SW9*%
X171306250Y-137968864D02*
X157306250Y-137968864D01*
X171306250Y-123968864D02*
X171306250Y-137968864D01*
X157306250Y-123968864D02*
X157306250Y-137968864D01*
X157306250Y-123968864D02*
X171306250Y-123968864D01*
%TO.C,SW2*%
X135875000Y-80818806D02*
X135875000Y-66818806D01*
X135875000Y-66818806D02*
X149875000Y-66818806D01*
X135875000Y-80818806D02*
X149875000Y-80818806D01*
X149875000Y-66818806D02*
X149875000Y-80818806D01*
%TO.C,SW5*%
X168925000Y-85868806D02*
X168925000Y-99868806D01*
X154925000Y-85868806D02*
X168925000Y-85868806D01*
X154925000Y-85868806D02*
X154925000Y-99868806D01*
X168925000Y-99868806D02*
X154925000Y-99868806D01*
%TO.C,SW6*%
X152256250Y-104918864D02*
X152256250Y-118918864D01*
X138256250Y-104918864D02*
X152256250Y-104918864D01*
X152256250Y-118918864D02*
X138256250Y-118918864D01*
X138256250Y-104918864D02*
X138256250Y-118918864D01*
%TD*%
M02*
