M48
; DRILL file {KiCad (6.0.1)} date Wed Feb 16 22:36:55 2022
; FORMAT={-:-/ absolute / inch / decimal}
; #@! TF.CreationDate,2022-02-16T22:36:55-05:00
; #@! TF.GenerationSoftware,Kicad,Pcbnew,(6.0.1)
; #@! TF.FileFunction,Plated,1,2,PTH
FMAT,2
INCH
; #@! TA.AperFunction,Plated,PTH,ViaDrill
T1C0.0098
; #@! TA.AperFunction,Plated,PTH,ViaDrill
T2C0.0157
; #@! TA.AperFunction,Plated,PTH,ComponentDrill
T3C0.0236
; #@! TA.AperFunction,Plated,PTH,ComponentDrill
T4C0.0591
%
G90
G05
T1
X6.1594Y-2.874
X6.2492Y-1.4756
X6.2776Y-2.5748
X6.3051Y-2.5748
X6.3307Y-2.5748
X6.3583Y-2.5748
X6.3744Y-1.5988
X6.3748Y-1.6996
X6.3858Y-2.5748
X6.4114Y-2.5748
X6.4114Y-3.2067
X6.439Y-2.5748
X6.439Y-2.7343
X6.4626Y-2.1083
X6.4965Y-1.4815
X6.5197Y-2.8661
X6.5344Y-2.8514
X6.5512Y-2.2283
X6.565Y-2.6831
X6.6783Y-3.052
X6.9772Y-2.102
T2
X6.1693Y-3.1004
X6.187Y-3.1417
X6.2087Y-3.065
X6.2087Y-3.2047
X6.2126Y-3.2539
X6.2283Y-3.1417
X6.2579Y-3.248
X6.2697Y-3.1772
X6.2795Y-3.1417
T4
X4.8188Y-3.5563
X5.0688Y-3.4563
X5.425Y-2.8063
X5.525Y-3.0563
X5.5687Y-4.3063
X5.8187Y-4.2063
X6.175Y-2.15
X6.225Y-3.5563
X6.275Y-2.4
X6.3187Y-5.0563
X6.475Y-3.4563
X6.5687Y-4.9563
X6.925Y-2.9
X6.925Y-4.3063
X7.025Y-3.15
X7.025Y-4.5563
X7.675Y-3.65
X7.725Y-5.0563
X7.775Y-3.9
X7.975Y-4.9563
T3
G00X6.2049Y-1.2156
M15
G01X6.2049Y-1.2392
M16
G05
G00X6.2049Y-1.3703
M15
G01X6.2049Y-1.4136
M16
G05
G00X6.5451Y-1.2156
M15
G01X6.5451Y-1.2392
M16
G05
G00X6.5451Y-1.3703
M15
G01X6.5451Y-1.4136
M16
G05
T0
M30
