%TF.GenerationSoftware,KiCad,Pcbnew,(6.0.1)*%
%TF.CreationDate,2022-02-15T23:07:00-05:00*%
%TF.ProjectId,herringbone_macro_pad,68657272-696e-4676-926f-6e655f6d6163,rev?*%
%TF.SameCoordinates,Original*%
%TF.FileFunction,Soldermask,Bot*%
%TF.FilePolarity,Negative*%
%FSLAX46Y46*%
G04 Gerber Fmt 4.6, Leading zero omitted, Abs format (unit mm)*
G04 Created by KiCad (PCBNEW (6.0.1)) date 2022-02-15 23:07:00*
%MOMM*%
%LPD*%
G01*
G04 APERTURE LIST*
G04 Aperture macros list*
%AMRoundRect*
0 Rectangle with rounded corners*
0 $1 Rounding radius*
0 $2 $3 $4 $5 $6 $7 $8 $9 X,Y pos of 4 corners*
0 Add a 4 corners polygon primitive as box body*
4,1,4,$2,$3,$4,$5,$6,$7,$8,$9,$2,$3,0*
0 Add four circle primitives for the rounded corners*
1,1,$1+$1,$2,$3*
1,1,$1+$1,$4,$5*
1,1,$1+$1,$6,$7*
1,1,$1+$1,$8,$9*
0 Add four rect primitives between the rounded corners*
20,1,$1+$1,$2,$3,$4,$5,0*
20,1,$1+$1,$4,$5,$6,$7,0*
20,1,$1+$1,$6,$7,$8,$9,0*
20,1,$1+$1,$8,$9,$2,$3,0*%
G04 Aperture macros list end*
%ADD10RoundRect,0.150000X-0.625000X0.150000X-0.625000X-0.150000X0.625000X-0.150000X0.625000X0.150000X0*%
%ADD11RoundRect,0.250000X-0.650000X0.350000X-0.650000X-0.350000X0.650000X-0.350000X0.650000X0.350000X0*%
%ADD12R,1.700000X1.000000*%
%ADD13C,1.750000*%
%ADD14C,4.000000*%
%ADD15C,3.050000*%
%ADD16C,2.200000*%
%ADD17R,0.800000X0.750000*%
%ADD18R,0.750000X0.800000*%
%ADD19R,2.000000X1.500000*%
%ADD20R,2.000000X3.800000*%
%ADD21O,1.100000X1.700000*%
%ADD22O,1.100000X2.200000*%
%ADD23RoundRect,0.050000X-0.300000X-0.725000X0.300000X-0.725000X0.300000X0.725000X-0.300000X0.725000X0*%
%ADD24RoundRect,0.050000X-0.150000X-0.725000X0.150000X-0.725000X0.150000X0.725000X-0.150000X0.725000X0*%
%ADD25C,0.750000*%
%ADD26R,1.300000X0.700000*%
%ADD27RoundRect,0.075000X0.662500X-0.075000X0.662500X0.075000X-0.662500X0.075000X-0.662500X-0.075000X0*%
%ADD28RoundRect,0.075000X0.075000X-0.662500X0.075000X0.662500X-0.075000X0.662500X-0.075000X-0.662500X0*%
%ADD29RoundRect,0.150000X-0.150000X0.512500X-0.150000X-0.512500X0.150000X-0.512500X0.150000X0.512500X0*%
%ADD30R,0.500000X0.900000*%
%ADD31R,0.900000X0.500000*%
%ADD32R,1.900000X2.500000*%
G04 APERTURE END LIST*
D10*
%TO.C,J1*%
X167850000Y-54650000D03*
X167850000Y-55650000D03*
X167850000Y-56650000D03*
X167850000Y-57650000D03*
D11*
X171725000Y-58950000D03*
X171725000Y-53350000D03*
%TD*%
D12*
%TO.C,SW11*%
X155550000Y-81450000D03*
X149250000Y-81450000D03*
X155550000Y-85250000D03*
X149250000Y-85250000D03*
%TD*%
D13*
%TO.C,SW9*%
X200025000Y-90170056D03*
D14*
X208265000Y-83312056D03*
D15*
X193025000Y-107188056D03*
D14*
X208265000Y-107188056D03*
D13*
X200025000Y-100330056D03*
D15*
X193025000Y-83312056D03*
D14*
X200025000Y-95250056D03*
D16*
X197485000Y-99060056D03*
X194945000Y-92710056D03*
%TD*%
D13*
%TO.C,SW8*%
X180975000Y-106838806D03*
D14*
X180975000Y-111918806D03*
D13*
X180975000Y-116998806D03*
D16*
X178435000Y-115728806D03*
X175895000Y-109378806D03*
%TD*%
D13*
%TO.C,SW3*%
X161925058Y-62230056D03*
D14*
X161925058Y-57150056D03*
X170165058Y-45212056D03*
D15*
X154925058Y-69088056D03*
D14*
X170165058Y-69088056D03*
D13*
X161925058Y-52070056D03*
D15*
X154925058Y-45212056D03*
D16*
X159385058Y-60960056D03*
X156845058Y-54610056D03*
%TD*%
D13*
%TO.C,SW10*%
X194945000Y-130968806D03*
D14*
X200025000Y-130968806D03*
D13*
X205105000Y-130968806D03*
D16*
X196215000Y-128428806D03*
X202565000Y-125888806D03*
%TD*%
D15*
%TO.C,SW6*%
X173975000Y-88138000D03*
D13*
X180975000Y-81280000D03*
D14*
X180975000Y-76200000D03*
D15*
X173975000Y-64262000D03*
D13*
X180975000Y-71120000D03*
D14*
X189215000Y-64262000D03*
X189215000Y-88138000D03*
D16*
X178435000Y-80010000D03*
X175895000Y-73660000D03*
%TD*%
D15*
%TO.C,SW1*%
X138144306Y-85868922D03*
X114268306Y-85868922D03*
D13*
X131286306Y-92868922D03*
D14*
X138144306Y-101108922D03*
X126206306Y-92868922D03*
X114268306Y-101108922D03*
D13*
X121126306Y-92868922D03*
D16*
X122396306Y-90328922D03*
X128746306Y-87788922D03*
%TD*%
D13*
%TO.C,SW7*%
X159226250Y-130968864D03*
D15*
X176244250Y-123968864D03*
X152368250Y-123968864D03*
D14*
X152368250Y-139208864D03*
D13*
X169386250Y-130968864D03*
D14*
X176244250Y-139208864D03*
X164306250Y-130968864D03*
D16*
X160496250Y-128428864D03*
X166846250Y-125888864D03*
%TD*%
D13*
%TO.C,SW2*%
X142875000Y-68738806D03*
X142875000Y-78898806D03*
D14*
X142875000Y-73818806D03*
D16*
X140335000Y-77628806D03*
X137795000Y-71278806D03*
%TD*%
%TO.C,SW5*%
X164465000Y-87788806D03*
X158115000Y-90328806D03*
D13*
X156845000Y-92868806D03*
D14*
X161925000Y-92868806D03*
D13*
X167005000Y-92868806D03*
%TD*%
D14*
%TO.C,SW4*%
X133318250Y-120158864D03*
D13*
X150336250Y-111918864D03*
D14*
X157194250Y-120158864D03*
D13*
X140176250Y-111918864D03*
D15*
X133318250Y-104918864D03*
X157194250Y-104918864D03*
D14*
X145256250Y-111918864D03*
D16*
X141446250Y-109378864D03*
X147796250Y-106838864D03*
%TD*%
D17*
%TO.C,C7*%
X158050000Y-69550000D03*
X159550000Y-69550000D03*
%TD*%
D18*
%TO.C,C12*%
X163750000Y-84300000D03*
X163750000Y-82800000D03*
%TD*%
D19*
%TO.C,U2*%
X179200000Y-58000000D03*
D20*
X185500000Y-55700000D03*
D19*
X179200000Y-55700000D03*
X179200000Y-53400000D03*
%TD*%
D18*
%TO.C,C9*%
X159530000Y-66650000D03*
X159530000Y-68150000D03*
%TD*%
D21*
%TO.C,USB1*%
X157605000Y-31175000D03*
D22*
X166245000Y-35355000D03*
D21*
X166245000Y-31175000D03*
D22*
X157605000Y-35355000D03*
D23*
X165150000Y-36270000D03*
X164375000Y-36270000D03*
D24*
X163675000Y-36270000D03*
X163175000Y-36270000D03*
X162675000Y-36270000D03*
X162175000Y-36270000D03*
X161675000Y-36270000D03*
X161175000Y-36270000D03*
X160675000Y-36270000D03*
X160175000Y-36270000D03*
D23*
X159475000Y-36270000D03*
X158700000Y-36270000D03*
D25*
X159035000Y-34825000D03*
X164815000Y-34825000D03*
%TD*%
D26*
%TO.C,D1*%
X175250000Y-55250000D03*
X175250000Y-57150000D03*
%TD*%
D27*
%TO.C,U3*%
X168152500Y-78020000D03*
X168152500Y-77520000D03*
X168152500Y-77020000D03*
X168152500Y-76520000D03*
X168152500Y-76020000D03*
X168152500Y-75520000D03*
X168152500Y-75020000D03*
X168152500Y-74520000D03*
X168152500Y-74020000D03*
X168152500Y-73520000D03*
X168152500Y-73020000D03*
X168152500Y-72520000D03*
D28*
X166740000Y-71107500D03*
X166240000Y-71107500D03*
X165740000Y-71107500D03*
X165240000Y-71107500D03*
X164740000Y-71107500D03*
X164240000Y-71107500D03*
X163740000Y-71107500D03*
X163240000Y-71107500D03*
X162740000Y-71107500D03*
X162240000Y-71107500D03*
X161740000Y-71107500D03*
X161240000Y-71107500D03*
D27*
X159827500Y-72520000D03*
X159827500Y-73020000D03*
X159827500Y-73520000D03*
X159827500Y-74020000D03*
X159827500Y-74520000D03*
X159827500Y-75020000D03*
X159827500Y-75520000D03*
X159827500Y-76020000D03*
X159827500Y-76520000D03*
X159827500Y-77020000D03*
X159827500Y-77520000D03*
X159827500Y-78020000D03*
D28*
X161240000Y-79432500D03*
X161740000Y-79432500D03*
X162240000Y-79432500D03*
X162740000Y-79432500D03*
X163240000Y-79432500D03*
X163740000Y-79432500D03*
X164240000Y-79432500D03*
X164740000Y-79432500D03*
X165240000Y-79432500D03*
X165740000Y-79432500D03*
X166240000Y-79432500D03*
X166740000Y-79432500D03*
%TD*%
D17*
%TO.C,C5*%
X158040000Y-70860000D03*
X159540000Y-70860000D03*
%TD*%
D18*
%TO.C,C10*%
X160860000Y-66650000D03*
X160860000Y-68150000D03*
%TD*%
%TO.C,C8*%
X163550000Y-68150000D03*
X163550000Y-66650000D03*
%TD*%
D17*
%TO.C,C11*%
X156500000Y-72200000D03*
X158000000Y-72200000D03*
%TD*%
D29*
%TO.C,U1*%
X160970000Y-41747500D03*
X161920000Y-41747500D03*
X162870000Y-41747500D03*
X162870000Y-39472500D03*
X161920000Y-39472500D03*
X160970000Y-39472500D03*
%TD*%
D30*
%TO.C,R5*%
X162100000Y-82800000D03*
X160600000Y-82800000D03*
%TD*%
D18*
%TO.C,C6*%
X162200000Y-66650000D03*
X162200000Y-68150000D03*
%TD*%
D17*
%TO.C,C3*%
X180650000Y-51250000D03*
X179150000Y-51250000D03*
%TD*%
D31*
%TO.C,R2*%
X164390000Y-38710000D03*
X164390000Y-40210000D03*
%TD*%
D18*
%TO.C,C2*%
X166950000Y-88600000D03*
X166950000Y-87100000D03*
%TD*%
%TO.C,C4*%
X179180000Y-61890000D03*
X179180000Y-60390000D03*
%TD*%
D31*
%TO.C,R1*%
X159440000Y-40210000D03*
X159440000Y-38710000D03*
%TD*%
D18*
%TO.C,C1*%
X171250000Y-88600000D03*
X171250000Y-87100000D03*
%TD*%
D32*
%TO.C,Y1*%
X171340625Y-83950000D03*
X166940625Y-83950000D03*
%TD*%
M02*
