%TF.GenerationSoftware,KiCad,Pcbnew,(6.0.1)*%
%TF.CreationDate,2022-02-09T22:29:10-05:00*%
%TF.ProjectId,herringbone_base_layer,68657272-696e-4676-926f-6e655f626173,rev?*%
%TF.SameCoordinates,Original*%
%TF.FileFunction,Legend,Top*%
%TF.FilePolarity,Positive*%
%FSLAX46Y46*%
G04 Gerber Fmt 4.6, Leading zero omitted, Abs format (unit mm)*
G04 Created by KiCad (PCBNEW (6.0.1)) date 2022-02-09 22:29:10*
%MOMM*%
%LPD*%
G01*
G04 APERTURE LIST*
%ADD10C,0.150000*%
G04 APERTURE END LIST*
D10*
%TO.C,REF\u002A\u002A*%
X180379785Y-15853835D02*
X180278770Y-16426255D01*
X180783846Y-16257896D02*
X180076739Y-16965003D01*
X179807365Y-16695629D01*
X179773694Y-16594613D01*
X179773694Y-16527270D01*
X179807365Y-16426255D01*
X179908381Y-16325239D01*
X180009396Y-16291568D01*
X180076739Y-16291568D01*
X180177755Y-16325239D01*
X180447129Y-16594613D01*
X179706350Y-15921178D02*
X179470648Y-15685476D01*
X179740022Y-15214072D02*
X180076739Y-15550789D01*
X179369633Y-16257896D01*
X179032915Y-15921178D01*
X178830885Y-15045713D02*
X179066587Y-15281415D01*
X179436976Y-14911026D02*
X178729869Y-15618133D01*
X178393152Y-15281415D01*
X178022763Y-14911026D02*
X178191121Y-14742667D01*
X178292137Y-14978369D02*
X178191121Y-14742667D01*
X177955419Y-14641652D01*
X178426824Y-14708995D02*
X178191121Y-14742667D01*
X178224793Y-14506965D01*
X177484015Y-14372278D02*
X177652373Y-14203919D01*
X177753389Y-14439621D02*
X177652373Y-14203919D01*
X177416671Y-14102904D01*
X177888076Y-14170247D02*
X177652373Y-14203919D01*
X177686045Y-13968217D01*
X213213846Y-70577270D02*
X213112831Y-71149690D01*
X213617907Y-70981331D02*
X212910800Y-71688438D01*
X212641426Y-71419064D01*
X212607755Y-71318048D01*
X212607755Y-71250705D01*
X212641426Y-71149690D01*
X212742442Y-71048674D01*
X212843457Y-71015003D01*
X212910800Y-71015003D01*
X213011816Y-71048674D01*
X213281190Y-71318048D01*
X212540411Y-70644613D02*
X212304709Y-70408911D01*
X212574083Y-69937507D02*
X212910800Y-70274224D01*
X212203694Y-70981331D01*
X211866976Y-70644613D01*
X211664946Y-69769148D02*
X211900648Y-70004850D01*
X212271037Y-69634461D02*
X211563930Y-70341568D01*
X211227213Y-70004850D01*
X210856824Y-69634461D02*
X211025182Y-69466102D01*
X211126198Y-69701804D02*
X211025182Y-69466102D01*
X210789480Y-69365087D01*
X211260885Y-69432430D02*
X211025182Y-69466102D01*
X211058854Y-69230400D01*
X210318076Y-69095713D02*
X210486434Y-68927354D01*
X210587450Y-69163056D02*
X210486434Y-68927354D01*
X210250732Y-68826339D01*
X210722137Y-68893682D02*
X210486434Y-68927354D01*
X210520106Y-68691652D01*
X68407217Y-62158280D02*
X68306202Y-62730700D01*
X68811278Y-62562341D02*
X68104171Y-63269448D01*
X67834797Y-63000074D01*
X67801126Y-62899058D01*
X67801126Y-62831715D01*
X67834797Y-62730700D01*
X67935813Y-62629684D01*
X68036828Y-62596013D01*
X68104171Y-62596013D01*
X68205187Y-62629684D01*
X68474561Y-62899058D01*
X67733782Y-62225623D02*
X67498080Y-61989921D01*
X67767454Y-61518517D02*
X68104171Y-61855234D01*
X67397065Y-62562341D01*
X67060347Y-62225623D01*
X66858317Y-61350158D02*
X67094019Y-61585860D01*
X67464408Y-61215471D02*
X66757301Y-61922578D01*
X66420584Y-61585860D01*
X66050195Y-61215471D02*
X66218553Y-61047112D01*
X66319569Y-61282814D02*
X66218553Y-61047112D01*
X65982851Y-60946097D01*
X66454256Y-61013440D02*
X66218553Y-61047112D01*
X66252225Y-60811410D01*
X65511447Y-60676723D02*
X65679805Y-60508364D01*
X65780821Y-60744066D02*
X65679805Y-60508364D01*
X65444103Y-60407349D01*
X65915508Y-60474692D02*
X65679805Y-60508364D01*
X65713477Y-60272662D01*
X166909400Y-175814646D02*
X166808385Y-176387066D01*
X167313461Y-176218707D02*
X166606354Y-176925814D01*
X166336980Y-176656440D01*
X166303309Y-176555424D01*
X166303309Y-176488081D01*
X166336980Y-176387066D01*
X166437996Y-176286050D01*
X166539011Y-176252379D01*
X166606354Y-176252379D01*
X166707370Y-176286050D01*
X166976744Y-176555424D01*
X166235965Y-175881989D02*
X166000263Y-175646287D01*
X166269637Y-175174883D02*
X166606354Y-175511600D01*
X165899248Y-176218707D01*
X165562530Y-175881989D01*
X165360500Y-175006524D02*
X165596202Y-175242226D01*
X165966591Y-174871837D02*
X165259484Y-175578944D01*
X164922767Y-175242226D01*
X164552378Y-174871837D02*
X164720736Y-174703478D01*
X164821752Y-174939180D02*
X164720736Y-174703478D01*
X164485034Y-174602463D01*
X164956439Y-174669806D02*
X164720736Y-174703478D01*
X164754408Y-174467776D01*
X164013630Y-174333089D02*
X164181988Y-174164730D01*
X164283004Y-174400432D02*
X164181988Y-174164730D01*
X163946286Y-174063715D01*
X164417691Y-174131058D02*
X164181988Y-174164730D01*
X164215660Y-173929028D01*
X105450773Y-18379532D02*
X105349758Y-18951952D01*
X105854834Y-18783593D02*
X105147727Y-19490700D01*
X104878353Y-19221326D01*
X104844682Y-19120310D01*
X104844682Y-19052967D01*
X104878353Y-18951952D01*
X104979369Y-18850936D01*
X105080384Y-18817265D01*
X105147727Y-18817265D01*
X105248743Y-18850936D01*
X105518117Y-19120310D01*
X104777338Y-18446875D02*
X104541636Y-18211173D01*
X104811010Y-17739769D02*
X105147727Y-18076486D01*
X104440621Y-18783593D01*
X104103903Y-18446875D01*
X103901873Y-17571410D02*
X104137575Y-17807112D01*
X104507964Y-17436723D02*
X103800857Y-18143830D01*
X103464140Y-17807112D01*
X103093751Y-17436723D02*
X103262109Y-17268364D01*
X103363125Y-17504066D02*
X103262109Y-17268364D01*
X103026407Y-17167349D01*
X103497812Y-17234692D02*
X103262109Y-17268364D01*
X103295781Y-17032662D01*
X102555003Y-16897975D02*
X102723361Y-16729616D01*
X102824377Y-16965318D02*
X102723361Y-16729616D01*
X102487659Y-16628601D01*
X102959064Y-16695944D02*
X102723361Y-16729616D01*
X102757033Y-16493914D01*
%TD*%
M02*
